<svg xmlns="http://www.w3.org/2000/svg" viewBox="0 0 200 200" width="512" height="512" role="img" aria-label="Product ADJust">
  <defs>
    <linearGradient id="bg" x1="0.1" y1="0" x2="0.6" y2="1">
      <stop offset="0%" stop-color="#2A3550"/>
      <stop offset="100%" stop-color="#131B2C"/>
    </linearGradient>
    <linearGradient id="body" x1="0" y1="0" x2="0" y2="1">
      <stop offset="0%" stop-color="#F1F5F9"/>
      <stop offset="100%" stop-color="#94A3B8"/>
    </linearGradient>
    <linearGradient id="stem" x1="0" y1="0" x2="1" y2="0">
      <stop offset="0%" stop-color="#A5B4FC"/>
      <stop offset="100%" stop-color="#6366F1"/>
    </linearGradient>
  </defs>
  <g transform="translate(20, 20)">
    <rect width="160" height="160" rx="32" fill="url(#bg)"/>
    <g transform="translate(30, 30)">
      <path d="M18 12 L48 12 C74 12 90 30 90 50 C90 70 74 88 48 88 L18 88 Z
               M38 30 L48 30 C60 30 70 38 70 50 C70 62 60 70 48 70 L38 70 Z"
            fill="url(#body)" fill-rule="evenodd"/>
      <rect x="18" y="12" width="20" height="76" fill="url(#stem)"/>
      <circle cx="28" cy="50" r="6" fill="#0B1220"/>
      <circle cx="28" cy="50" r="2.5" fill="#A5B4FC"/>
    </g>
  </g>
</svg>
